<?xml version="1.0" encoding="utf-8"?>
<!-- Generator: Adobe Illustrator 27.3.1, SVG Export Plug-In . SVG Version: 6.00 Build 0)  -->
<svg version="1.1" id="Layer_1" xmlns="http://www.w3.org/2000/svg" xmlns:xlink="http://www.w3.org/1999/xlink" x="0px" y="0px"
	 viewBox="0 0 283.5 283.5" style="enable-background:new 0 0 283.5 283.5;" xml:space="preserve">
<style type="text/css">
	.st0{fill-rule:evenodd;clip-rule:evenodd;fill:#0071CE;}
	.st1{fill-rule:evenodd;clip-rule:evenodd;fill:#FFFFFF;}
	.st2{fill:#FFFFFF;}
</style>
<polygon class="st0" points="283.5,283.5 0,283.5 0,0 283.5,0 283.5,283.5 "/>
<path class="st1" d="M198,166.9v-3.6h2.8c1.2,0,2.5,0.2,2.5,1.8c0,2-2,1.8-3.4,1.8H198L198,166.9L198,166.9z M201.4,167.9
	c1.7,0,3.1-0.8,3.1-2.8c0-1.7-0.9-2.7-3.5-2.7h-4.3v10.1h1.2v-4.6h2.3l2.7,4.6h1.4L201.4,167.9L201.4,167.9L201.4,167.9z M200,177
	c5.1,0,9.2-4.2,9.2-9.5c0-5.2-4.1-9.5-9.2-9.5c-5.1,0-9.3,4.3-9.3,9.5C190.7,172.8,194.9,177,200,177L200,177L200,177z M200,175.8
	c-4.5,0-7.8-3.6-7.8-8.3c0-4.6,3.3-8.2,7.8-8.2c4.5,0,7.8,3.6,7.8,8.2C207.8,172.2,204.5,175.8,200,175.8L200,175.8L200,175.8z"/>
<g>
	<g>
		<path class="st2" d="M44,177H27.7v-66.6H44V177z"/>
		<path class="st2" d="M100.2,151.2v-40.8h15.8V177h-15.5l-27.3-40v40H57.5v-66.6H74L100.2,151.2z"/>
		<path class="st2" d="M164.3,142.6l23.1,34.4h-18.8l-13.4-21l-14,21h-18.4l23.2-34.4l-21.3-32.2h18.9l11.7,18.7l12.1-18.7h18.3
			L164.3,142.6z"/>
	</g>
	<g>
		<rect x="184.8" y="134.7" class="st2" width="15.6" height="15.5"/>
	</g>
	<g>
		<rect x="215.9" y="134.7" class="st2" width="15.6" height="15.5"/>
	</g>
	<g>
		<rect x="246.9" y="134.7" class="st2" width="15.6" height="15.5"/>
	</g>
</g>
</svg>
