<svg id="Layer_1" xmlns="http://www.w3.org/2000/svg" viewBox="0 0 85.04 85.04"><defs><style>.cls-1,.cls-2{fill:#020202;}.cls-1,.cls-2,.cls-3{stroke-width:0px;}.cls-2,.cls-3{fill-rule:evenodd;}.cls-3{fill:#e31937;}</style></defs><polygon class="cls-3" points="42.03 70.69 10.69 28.94 74.52 28.94 42.03 70.69"/><rect class="cls-1" x="25.2" y="16.05" width="2.41" height="10.2"/><polygon class="cls-2" points="34.52 16.05 39.17 26.27 36.45 26.27 33.38 18.82 30.68 26.25 27.99 26.25 32.11 16.05 34.52 16.05"/><polygon class="cls-2" points="11.08 17.79 14.79 17.79 14.79 16.05 5.12 16.05 5.12 17.79 8.62 17.79 8.62 26.25 11.08 26.25 11.08 17.79"/><polygon class="cls-2" points="63.28 16.05 60.82 16.05 60.82 26.25 68.23 26.25 68.23 24.54 63.28 24.54 63.28 16.05"/><polygon class="cls-2" points="42.33 16.05 46.89 23.63 46.74 16.05 49.39 16.05 49.39 26.25 46.15 26.25 41.64 18.96 41.79 26.25 39.62 26.25 39.62 16.05 42.33 16.05"/><path class="cls-2" d="M17.65,17.79v2.36h0v6.12h-2.1v-10.22h4.15c2.91,0,4.36,1.17,4.36,3,0,1.14-.81,2.17-1.91,2.76l2.62,4.43h-2.86l-2.67-5.55.24-.02c1.41-.12,2.12-.6,2.12-1.62,0-.79-.52-1.29-1.81-1.29"/><polygon class="cls-2" points="71.64 17.79 76.62 17.79 76.62 16.05 69.02 16.05 69.02 26.25 76.62 26.25 76.62 24.54 71.64 24.54 71.64 17.79"/><rect class="cls-1" x="73" y="20.2" width="2.33" height="2.12"/><path class="cls-2" d="M57.37,24.54h-2.14c-1.93-.14-2.36-1.14-2.45-3.17.14-2.29.5-3.53,2.43-3.57h4.31v-1.72h-4.43c-3.96,0-4.93,2.57-4.93,5.27,0,2.33.86,4.93,5.15,4.93h4.24v-6.22h-2.19v4.48h.02Z"/></svg>