<?xml version="1.0" encoding="UTF-8"?>
<svg id="Layer_1" xmlns="http://www.w3.org/2000/svg" viewBox="0 0 39.41 37.75"><path d="m39.22,12.09c-.18-3.4-.36-6.92-.07-10.63l.1-1.28h-1.29c-1.79-.03-3.54-.06-5.24-.1-2.28-.05-4.43-.08-6.52-.08C16.9,0,7.42.66,2.65,8.59,1.39,10.69.03,14.75,0,18.7c-.03,4.96,1.9,9.64,5.43,13.2,3.76,3.78,8.86,5.86,14.36,5.86,2.6,0,5.24-.47,7.82-1.4,5.88-2.12,10.62-7.94,11.52-14.17.44-3.09.27-6.48.08-10.09Z" style="fill:#007dc2; fill-rule:evenodd; stroke-width:0px;"/><path d="m19.82,36.88c-5.25,0-10.11-1.98-13.69-5.58-3.35-3.38-5.19-7.83-5.16-12.53.02-3.78,1.32-7.64,2.52-9.63C7.56,2.37,15.21,1.01,26.23,1.01c2.08,0,4.23.04,6.5.08,1.71.03,3.46.06,5.25.08h.29s-.02.29-.02.29c-.29,3.77-.11,7.32.07,10.75.18,3.55.36,6.91-.07,9.9-.85,5.9-5.34,11.42-10.91,13.42-2.49.89-5.01,1.34-7.51,1.34h0ZM26.23,1.54C15.12,1.54,7.91,2.83,3.95,9.42c-1.16,1.93-2.42,5.68-2.44,9.36-.03,4.56,1.75,8.87,5.01,12.15,3.48,3.5,8.2,5.42,13.31,5.42,2.43,0,4.9-.45,7.33-1.32,5.39-1.94,9.73-7.28,10.56-12.99.42-2.94.25-6.28.07-9.8-.18-3.36-.36-6.83-.09-10.53-1.7-.02-3.35-.05-4.97-.08-2.27-.04-4.41-.08-6.49-.08h0Z" style="fill:#b8dff6; stroke-width:0px;"/><path d="m26.42,34.1c-3.16,1.1-6.25,1.37-9.11.98-.12-1.13-.28-2.25-.46-3.37,3.12-.43,6.2-1.42,9.17-2.73.26,1.7.4,3.4.4,5.11Z" style="fill:#1b75bb; fill-rule:evenodd; stroke-width:0px;"/><path d="m9.36,31.92c-.02-.13-.03-.27-.05-.4,2.51.52,5.04.54,7.53.2.19,1.12.34,2.24.46,3.37-2.97-.41-5.68-1.52-7.95-3.16Z" style="fill:#00457c; fill-rule:evenodd; stroke-width:0px;"/><path d="m8.64,31.38c.22.05.45.1.67.14.02.13.04.27.05.4-.24-.18-.49-.36-.72-.54Z" style="fill:#007dc2; fill-rule:evenodd; stroke-width:0px;"/><path d="m34.65,27.19c-1.89,3.2-4.84,5.7-8,6.83-.08.03-.16.06-.24.08,0-1.71-.15-3.41-.4-5.11,2.78-1.22,5.47-2.72,8.02-4.27.22.82.43,1.64.62,2.47Z" style="fill:#91b5c6; fill-rule:evenodd; stroke-width:0px;"/><path d="m34.65,27.19c-.19-.83-.4-1.65-.62-2.47.76-.47,1.52-.95,2.26-1.42-.36,1.38-.92,2.68-1.63,3.89Z" style="fill:#e3e4e5; fill-rule:evenodd; stroke-width:0px;"/><path d="m8.64,31.38c-1.46-1.18-2.71-2.59-3.69-4.17,1.24.45,2.5.67,3.75.72.24,1.19.49,2.79.65,3.99-.25-.15-.51-.35-.72-.54Z" style="fill:#262261; fill-rule:evenodd; stroke-width:0px;"/><path d="m9.31,31.52c-.17-1.2-.36-2.4-.6-3.59,2.35.09,4.71-.43,7.05-1.33.43,1.69.8,3.4,1.08,5.11-2.5.34-5.02.32-7.53-.2Z" style="fill:#00457c; fill-rule:evenodd; stroke-width:0px;"/><path d="m26.01,28.99c-2.97,1.31-6.05,2.3-9.17,2.73-.29-1.71-.65-3.42-1.08-5.11,2.94-1.12,5.84-2.82,8.6-4.58.73,2.3,1.3,4.62,1.65,6.96Z" style="fill:#007dc2; fill-rule:evenodd; stroke-width:0px;"/><path d="m26.01,28.99c-.36-2.34-.92-4.67-1.65-6.96,1.24-.79,2.46-1.59,3.63-2.36,1.12-.8,2.31-1.59,3.56-2.34.96,2.41,1.79,4.88,2.48,7.39-2.54,1.55-5.23,3.05-8.02,4.27Z" style="fill:#00adee; fill-rule:evenodd; stroke-width:0px;"/><path d="m36.61,21.78c-.08.52-.19,1.02-.32,1.53-.74.47-1.49.95-2.26,1.42-.68-2.51-1.51-4.98-2.48-7.39,1.63-.97,3.37-1.84,5.22-2.49.11,2.48.13,4.8-.17,6.94Z" style="fill:#ccdde6; fill-rule:evenodd; stroke-width:0px;"/><path d="m2.76,16.26c.11-.74.26-1.46.44-2.15.48.68.92,1.39,1.33,2.11-.58.04-1.17.06-1.77.04Z" style="fill:#006838; fill-rule:evenodd; stroke-width:0px;"/><path d="m4.53,16.22c-.41-.72-.85-1.42-1.33-2.11.43-1.68,1.04-3.17,1.66-4.19.59-.98,1.27-1.84,2.01-2.59,1.62,2.26,3.06,4.65,4.33,7.16-2.11.94-4.33,1.56-6.67,1.73Z" style="fill:#8bc53f; fill-rule:evenodd; stroke-width:0px;"/><path d="m11.2,14.49c-1.27-2.51-2.71-4.9-4.33-7.16,2.29-2.27,5.3-3.51,8.89-4.16,1.07,2.02,2.17,4.08,3.24,6.21-2.41,2.04-5.01,3.85-7.8,5.11Z" style="fill:#d6de23; fill-rule:evenodd; stroke-width:0px;"/><path d="m19,9.38c-1.07-2.12-2.17-4.19-3.24-6.21,2.35-.42,4.94-.6,7.74-.66.37.51.72,1.03,1.07,1.56-1.75,1.81-3.6,3.63-5.57,5.31Z" style="fill:#f9ec31; fill-rule:evenodd; stroke-width:0px;"/><path d="m23.5,2.52c.84-.02,1.7-.03,2.58-.02-.49.52-1,1.05-1.51,1.58-.35-.53-.7-1.04-1.07-1.56Z" style="fill:#fff100; fill-rule:evenodd; stroke-width:0px;"/><path d="m2.82,21.61c-.17-.94-.26-1.91-.26-2.89,0-.81.08-1.64.2-2.46.6.02,1.19,0,1.77-.04,1.03,1.8,1.87,3.7,2.55,5.67-1.4.04-2.82-.04-4.26-.28Z" style="fill:#f05a28; fill-rule:evenodd; stroke-width:0px;"/><path d="m13.9,20.66c-2.21.71-4.48,1.15-6.81,1.23-.68-1.97-1.52-3.87-2.55-5.67,2.35-.17,4.57-.79,6.67-1.73,1.01,2,1.91,4.06,2.7,6.17Z" style="fill:#f6921e; fill-rule:evenodd; stroke-width:0px;"/><path d="m22.36,16.6c-2.71,1.7-5.54,3.12-8.46,4.06-.78-2.11-1.68-4.17-2.7-6.17,2.79-1.25,5.39-3.06,7.8-5.11,1.19,2.35,2.33,4.76,3.36,7.22Z" style="fill:#faaf40; fill-rule:evenodd; stroke-width:0px;"/><path d="m22.36,16.6c-1.02-2.45-2.17-4.87-3.36-7.22,1.97-1.67,3.82-3.5,5.57-5.31,1.64,2.47,3.14,5.05,4.49,7.72-2.16,1.71-4.39,3.36-6.7,4.8Z" style="fill:#fcb813; fill-rule:evenodd; stroke-width:0px;"/><path d="m36.48,5.52c-2.36,2.05-4.84,4.21-7.42,6.28-1.34-2.67-2.84-5.25-4.49-7.72.51-.53,1.02-1.06,1.51-1.58,3.28,0,6.81.12,10.52.16-.08.97-.11,1.93-.13,2.87Z" style="fill:#ffe39c; fill-rule:evenodd; stroke-width:0px;"/><path d="m4.96,27.21c-1.05-1.69-1.78-3.58-2.14-5.6,1.44.24,2.87.32,4.26.28.68,1.96,1.22,3.99,1.63,6.04-1.26-.05-2.51-.27-3.75-.72Z" style="fill:#6f1100; fill-rule:evenodd; stroke-width:0px;"/><path d="m15.76,26.61c-2.33.89-4.7,1.42-7.05,1.33-.41-2.05-.94-4.08-1.63-6.04,2.33-.08,4.6-.51,6.81-1.23.72,1.95,1.34,3.94,1.86,5.95Z" style="fill:#941b1e; fill-rule:evenodd; stroke-width:0px;"/><path d="m24.36,22.03c-2.76,1.76-5.66,3.46-8.6,4.58-.52-2.01-1.14-4-1.86-5.95,2.93-.94,5.75-2.36,8.46-4.06.74,1.79,1.42,3.6,2,5.43Z" style="fill:#be1e2d; fill-rule:evenodd; stroke-width:0px;"/><path d="m31.56,17.34c-1.25.74-2.44,1.54-3.56,2.34-1.18.76-2.39,1.56-3.63,2.36-.58-1.83-1.26-3.64-2-5.43,2.31-1.44,4.54-3.09,6.7-4.8.91,1.8,1.74,3.65,2.5,5.54Z" style="fill:#ee4036; fill-rule:evenodd; stroke-width:0px;"/><path d="m36.78,14.84c-1.85.65-3.59,1.53-5.22,2.49-.75-1.88-1.59-3.73-2.5-5.54,2.58-2.07,5.06-4.23,7.42-6.28-.06,3.29.17,6.42.3,9.32Z" style="fill:#f05a28; fill-rule:evenodd; stroke-width:0px;"/></svg>