<?xml version="1.0" encoding="UTF-8"?><svg id="Layer_1" xmlns="http://www.w3.org/2000/svg" width="25.22mm" height="19.3mm" viewBox="0 0 71.5 54.7"><polygon points="36.9 54.7 5.6 12.9 69.4 12.9 36.9 54.7" style="fill:#e31937; fill-rule:evenodd; stroke-width:0px;"/><rect x="20.1" y=".1" width="2.4" height="10.2" style="fill:#020202; stroke-width:0px;"/><polygon points="29.4 .1 34.1 10.3 31.4 10.3 28.3 2.8 25.6 10.3 22.9 10.3 27 .1 29.4 .1" style="fill:#020202; fill-rule:evenodd; stroke-width:0px;"/><polygon points="6 1.8 9.7 1.8 9.7 .1 0 .1 0 1.8 3.5 1.8 3.5 10.3 6 10.3 6 1.8" style="fill:#020202; fill-rule:evenodd; stroke-width:0px;"/><polygon points="58.2 .1 55.7 .1 55.7 10.3 63.1 10.3 63.1 8.5 58.2 8.5 58.2 .1" style="fill:#020202; fill-rule:evenodd; stroke-width:0px;"/><polygon points="37.2 .1 41.8 7.6 41.6 .1 44.3 .1 44.3 10.3 41 10.3 36.5 3 36.7 10.3 34.5 10.3 34.5 .1 37.2 .1" style="fill:#020202; fill-rule:evenodd; stroke-width:0px;"/><path d="M12.6,1.8v2.4h0v6.1h-2.1V.1h4.1c2.9,0,4.4,1.2,4.4,3s-.8,2.2-1.9,2.8l2.6,4.4h-2.9l-2.7-5.6h.2c1.4-.1,2.1-.6,2.1-1.6s-.5-1.3-1.8-1.3" style="fill:#020202; fill-rule:evenodd; stroke-width:0px;"/><polygon points="66.5 1.8 71.5 1.8 71.5 .1 63.9 .1 63.9 10.3 71.5 10.3 71.5 8.5 66.5 8.5 66.5 1.8" style="fill:#020202; fill-rule:evenodd; stroke-width:0px;"/><rect x="67.9" y="4.2" width="2.3" height="2.1" style="fill:#020202; stroke-width:0px;"/><path d="M52.3,8.5h-2.1c-1.9-.1-2.4-1.1-2.5-3.2.1-2.3.5-3.5,2.4-3.6h4.3V0h-4.4c-4,0-4.9,2.6-4.9,5.3s.9,4.9,5.1,4.9h4.2v-6.2h-2.2v4.5h.1Z" style="fill:#020202; fill-rule:evenodd; stroke-width:0px;"/></svg>