<?xml version="1.0" encoding="utf-8"?>
<!-- Generator: Adobe Illustrator 28.0.0, SVG Export Plug-In . SVG Version: 6.00 Build 0)  -->
<svg version="1.1" id="Layer_1" xmlns="http://www.w3.org/2000/svg" xmlns:xlink="http://www.w3.org/1999/xlink" x="0px" y="0px"
	 viewBox="0 0 327 253" style="enable-background:new 0 0 327 253;" xml:space="preserve">
<style type="text/css">
	.st0{fill-rule:evenodd;clip-rule:evenodd;fill:#E31937;}
	.st1{fill-rule:evenodd;clip-rule:evenodd;fill:#020202;}
</style>
<polygon class="st0" points="166.7,242 35.2,66.8 303.1,66.8 "/>
<rect x="96.1" y="12.7" class="st1" width="10.1" height="42.8"/>
<polygon class="st1" points="135.2,12.7 154.7,55.6 143.3,55.6 130.4,24.3 119.1,55.5 107.8,55.5 125.1,12.7 "/>
<polygon class="st1" points="36.8,20 52.4,20 52.4,12.7 11.8,12.7 11.8,20 26.5,20 26.5,55.5 36.8,55.5 "/>
<polygon class="st1" points="255.9,12.7 245.6,12.7 245.6,55.5 276.7,55.5 276.7,48.3 255.9,48.3 "/>
<polygon class="st1" points="168,12.7 187.1,44.5 186.5,12.7 197.6,12.7 197.6,55.5 184,55.5 165.1,24.9 165.7,55.5 156.6,55.5 
	156.6,12.7 "/>
<path class="st1" d="M64.4,20v9.9l0,0v25.7h-8.8V12.7H73c12.2,0,18.3,4.9,18.3,12.6c0,4.8-3.4,9.1-8,11.6l11,18.6h-12L71.1,32.2
	l1-0.1c5.9-0.5,8.9-2.5,8.9-6.8c0-3.3-2.2-5.4-7.6-5.4"/>
<polygon class="st1" points="291,20 311.9,20 311.9,12.7 280,12.7 280,55.5 311.9,55.5 311.9,48.3 291,48.3 "/>
<rect x="296.7" y="30.1" class="st1" width="9.8" height="8.9"/>
<path class="st1" d="M231.1,48.3h-9c-8.1-0.6-9.9-4.8-10.3-13.3c0.6-9.6,2.1-14.8,10.2-15h18.1v-7.2h-18.6
	c-16.6,0-20.7,10.8-20.7,22.1c0,9.8,3.6,20.7,21.6,20.7h17.8V29.5H231v18.8H231.1z"/>
</svg>
