<?xml version="1.0" encoding="UTF-8"?>
<svg id="Layer_1" data-name="Layer 1" xmlns="http://www.w3.org/2000/svg" version="1.1" viewBox="0 0 85 85">
  <defs>
    <style>
      .cls-1, .cls-2 {
        fill: #020202;
      }

      .cls-1, .cls-2, .cls-3 {
        stroke-width: 0px;
      }

      .cls-2, .cls-3 {
        fill-rule: evenodd;
      }

      .cls-3 {
        fill: #e31937;
      }
    </style>
  </defs>
  <polygon class="cls-3" points="42 70.7 10.7 28.9 74.5 28.9 42 70.7"/>
  <rect class="cls-1" x="25.2" y="16.1" width="2.4" height="10.2"/>
  <polygon class="cls-2" points="34.5 16.1 39.2 26.3 36.5 26.3 33.4 18.8 30.7 26.3 28 26.3 32.1 16.1 34.5 16.1"/>
  <polygon class="cls-2" points="11.1 17.8 14.8 17.8 14.8 16.1 5.1 16.1 5.1 17.8 8.6 17.8 8.6 26.3 11.1 26.3 11.1 17.8"/>
  <polygon class="cls-2" points="63.3 16.1 60.8 16.1 60.8 26.3 68.2 26.3 68.2 24.5 63.3 24.5 63.3 16.1"/>
  <polygon class="cls-2" points="42.3 16.1 46.9 23.6 46.7 16.1 49.4 16.1 49.4 26.3 46.1 26.3 41.6 19 41.8 26.3 39.6 26.3 39.6 16.1 42.3 16.1"/>
  <path class="cls-2" d="M17.7,17.8v2.4h0v6.1h-2.1v-10.2h4.1c2.9,0,4.4,1.2,4.4,3s-.8,2.2-1.9,2.8l2.6,4.4h-2.9l-2.7-5.6h.2c1.4-.1,2.1-.6,2.1-1.6s-.5-1.3-1.8-1.3"/>
  <polygon class="cls-2" points="71.6 17.8 76.6 17.8 76.6 16.1 69 16.1 69 26.3 76.6 26.3 76.6 24.5 71.6 24.5 71.6 17.8"/>
  <rect class="cls-1" x="73" y="20.2" width="2.3" height="2.1"/>
  <path class="cls-2" d="M57.4,24.5h-2.1c-1.9-.1-2.4-1.1-2.5-3.2.1-2.3.5-3.5,2.4-3.6h4.3v-1.7h-4.4c-4,0-4.9,2.6-4.9,5.3s.9,4.9,5.1,4.9h4.2v-6.2h-2.2v4.5h0Z"/>
</svg>