<svg id="Layer_1" xmlns="http://www.w3.org/2000/svg" viewBox="0 0 232 68">
<path d="M60.7,55.9H2.7V1.9h58v54ZM20.7,24.9h-8v7h8v-7ZM35.7,24.9h-8v7h8v-7ZM50.7,24.9h-8v7h8v-7Z" style="fill:#fff; fill-rule:evenodd; stroke-width:0px;"/>
<rect x="2.7" y="60.9" width="36" height="5.2" style="fill:#b4bbbf; stroke-width:0px;"/>
<rect x="38.7" y="60.9" width="22" height="5.2" style="fill:#fff; stroke-width:0px;"/>
<rect x="53.1" y="5.75" width="156.6" height="52.3" style="fill:none; stroke-width:0px;"/>
<path d="M82.63,37.1h-5.05v7.7c0,1.1-.26,1.94-.78,2.5s-1.18.85-1.97.85-1.5-.28-2-.84c-.51-.56-.76-1.39-.76-2.48v-20.97c0-1.21.28-2.08.83-2.6s1.44-.78,2.65-.78h7.07c2.09,0,3.7.16,4.82.48,1.11.31,2.07.82,2.89,1.54.81.72,1.43,1.6,1.85,2.63.42,1.04.63,2.21.63,3.51,0,2.77-.85,4.87-2.56,6.3-1.71,1.43-4.25,2.14-7.63,2.14ZM81.29,24.63h-3.71v8.31h3.71c1.3,0,2.38-.14,3.26-.41.87-.27,1.54-.72,1.99-1.34.46-.62.69-1.43.69-2.43,0-1.2-.35-2.18-1.06-2.93-.79-.8-2.42-1.21-4.88-1.21Z" style="fill:#fff; stroke-width:0px;"/>
<path d="M97.06,45.08v-21.97c0-1.01.23-1.78.68-2.3.45-.52,1.06-.78,1.83-.78s1.39.26,1.86.77c.47.51.71,1.28.71,2.31v21.97c0,1.03-.24,1.8-.71,2.31-.48.51-1.09.77-1.85.77s-1.35-.27-1.81-.8-.7-1.29-.7-2.28Z" style="fill:#fff; stroke-width:0px;"/>
<path d="M120.16,45.3c-1.22.95-2.41,1.67-3.55,2.14-1.14.48-2.43.71-3.85.71-1.3,0-2.44-.26-3.42-.77-.98-.51-1.74-1.21-2.27-2.09-.53-.88-.8-1.83-.8-2.86,0-1.38.44-2.57,1.32-3.54.88-.98,2.08-1.63,3.62-1.97.32-.07,1.12-.24,2.39-.5,1.27-.26,2.37-.5,3.27-.71.91-.22,1.9-.48,2.96-.79-.06-1.34-.33-2.32-.81-2.94-.48-.62-1.46-.94-2.96-.94-1.29,0-2.25.18-2.9.54-.65.36-1.21.9-1.67,1.61-.46.72-.79,1.19-.98,1.42-.19.23-.6.34-1.23.34-.57,0-1.06-.18-1.48-.55-.41-.36-.62-.83-.62-1.4,0-.89.32-1.76.95-2.6.63-.84,1.61-1.53,2.95-2.08,1.34-.54,3-.82,4.99-.82,2.23,0,3.98.26,5.25.79,1.27.53,2.17,1.36,2.7,2.5.53,1.14.79,2.65.79,4.53,0,1.19,0,2.2,0,3.02,0,.83-.02,1.75-.03,2.76,0,.95.16,1.95.47,2.98.31,1.03.47,1.7.47,1.99,0,.52-.24.99-.73,1.42-.49.43-1.04.64-1.66.64-.52,0-1.03-.24-1.54-.73-.51-.49-1.05-1.2-1.61-2.12ZM119.83,37.98c-.74.27-1.82.56-3.24.86-1.42.3-2.4.53-2.94.67-.54.14-1.06.42-1.56.83-.5.42-.74.99-.74,1.74s.29,1.42.87,1.96c.58.54,1.34.81,2.28.81,1,0,1.93-.22,2.77-.66.85-.44,1.47-1,1.86-1.7.46-.77.69-2.03.69-3.79v-.72Z" style="fill:#fff; stroke-width:0px;"/>
<path d="M129.27,28.01h.56v-3.04c0-.82.02-1.46.06-1.92.04-.46.16-.86.36-1.2.2-.35.48-.63.85-.84.37-.22.79-.32,1.24-.32.64,0,1.22.24,1.74.72.35.32.57.71.66,1.18.09.46.14,1.12.14,1.98v3.45h1.86c.72,0,1.26.17,1.64.51.38.34.57.78.57,1.31,0,.68-.27,1.16-.81,1.43-.54.27-1.31.41-2.31.41h-.95v9.31c0,.79.03,1.4.08,1.83.06.43.21.77.45,1.04.24.27.63.4,1.18.4.3,0,.7-.05,1.21-.16.51-.1.9-.16,1.19-.16.41,0,.78.16,1.1.49s.49.73.49,1.22c0,.82-.45,1.44-1.34,1.87s-2.17.65-3.84.65c-1.58,0-2.78-.27-3.6-.8s-1.35-1.27-1.6-2.21c-.25-.94-.38-2.2-.38-3.77v-9.72h-.67c-.73,0-1.29-.17-1.67-.52-.38-.35-.58-.79-.58-1.32s.2-.97.6-1.31c.4-.34.99-.51,1.75-.51Z" style="fill:#fff; stroke-width:0px;"/>
<path d="M142.04,28.01h1.21v-1.52c0-1.58.2-2.84.6-3.78.4-.93,1.08-1.61,2.04-2.04.96-.43,2.27-.64,3.94-.64,2.96,0,4.43.72,4.43,2.17,0,.47-.16.87-.46,1.21-.31.33-.67.5-1.09.5-.2,0-.54-.04-1.02-.11s-.89-.11-1.22-.11c-.92,0-1.5.27-1.76.81s-.39,1.31-.39,2.31v1.21h1.24c1.93,0,2.89.58,2.89,1.74,0,.83-.26,1.35-.77,1.58-.51.22-1.22.33-2.12.33h-1.24v13.42c0,1-.24,1.77-.71,2.29-.48.53-1.09.79-1.85.79s-1.31-.26-1.79-.79c-.48-.53-.71-1.29-.71-2.29v-13.42h-1.39c-.75,0-1.34-.17-1.74-.51-.41-.34-.61-.78-.61-1.33,0-1.21.85-1.82,2.54-1.82Z" style="fill:#fff; stroke-width:0px;"/>
<path d="M173.56,37.86c0,1.51-.24,2.9-.71,4.17-.47,1.27-1.15,2.37-2.04,3.28-.89.92-1.96,1.62-3.19,2.11-1.24.49-2.63.73-4.17.73s-2.91-.25-4.14-.74-2.29-1.2-3.18-2.12c-.9-.92-1.58-2.01-2.04-3.27-.46-1.26-.7-2.64-.7-4.17s.23-2.94.71-4.21c.47-1.27,1.14-2.36,2.02-3.27.88-.9,1.94-1.6,3.19-2.09,1.25-.49,2.63-.73,4.14-.73s2.92.25,4.17.74c1.25.5,2.32,1.2,3.21,2.12.89.92,1.57,2,2.03,3.27.46,1.26.7,2.65.7,4.17ZM168.48,37.86c0-2.07-.45-3.67-1.36-4.82-.91-1.15-2.13-1.73-3.66-1.73-.99,0-1.86.26-2.62.77-.75.51-1.34,1.27-1.74,2.27s-.61,2.17-.61,3.51.2,2.48.6,3.47c.4.99.98,1.75,1.72,2.27.75.53,1.63.79,2.64.79,1.53,0,2.76-.58,3.66-1.73.91-1.16,1.36-2.76,1.36-4.8Z" style="fill:#fff; stroke-width:0px;"/>
<path d="M182.58,40.85v4.23c0,1.03-.24,1.8-.72,2.31-.48.51-1.09.77-1.84.77s-1.33-.26-1.8-.78c-.47-.52-.71-1.29-.71-2.3v-14.1c0-2.28.82-3.41,2.47-3.41.84,0,1.45.27,1.82.8.37.53.58,1.32.61,2.36.61-1.04,1.23-1.82,1.86-2.36.64-.53,1.49-.8,2.55-.8s2.1.27,3.1.8c1,.53,1.5,1.24,1.5,2.12,0,.62-.21,1.13-.64,1.53-.43.4-.89.6-1.38.6-.19,0-.63-.11-1.35-.34-.71-.23-1.34-.34-1.88-.34-.74,0-1.35.19-1.82.58-.47.39-.83.97-1.09,1.73-.26.77-.44,1.68-.54,2.74-.1,1.06-.15,2.35-.15,3.87Z" style="fill:#fff; stroke-width:0px;"/>
<path d="M211.04,38.24v6.74c0,1.06-.24,1.86-.72,2.39s-1.12.8-1.91.8-1.39-.27-1.86-.8c-.48-.53-.71-1.33-.71-2.39v-8.07c0-1.27-.04-2.26-.13-2.97-.09-.71-.32-1.28-.71-1.73-.38-.45-.99-.68-1.82-.68-1.66,0-2.75.57-3.27,1.71-.53,1.14-.79,2.77-.79,4.9v6.85c0,1.05-.24,1.85-.71,2.38-.48.54-1.1.81-1.88.81s-1.39-.27-1.88-.81c-.49-.54-.73-1.33-.73-2.38v-14.49c0-.95.22-1.68.66-2.17.44-.49,1.02-.74,1.73-.74s1.27.23,1.73.7c.46.46.7,1.1.7,1.92v.48c.88-1.05,1.82-1.82,2.82-2.32,1-.49,2.12-.74,3.34-.74s2.37.25,3.28.76c.92.51,1.67,1.27,2.26,2.3.85-1.04,1.77-1.81,2.75-2.31.98-.5,2.06-.75,3.25-.75,1.38,0,2.58.27,3.58.82,1,.54,1.75,1.32,2.25,2.34.43.92.65,2.36.65,4.32v9.89c0,1.06-.24,1.86-.72,2.39s-1.12.8-1.91.8-1.39-.27-1.88-.81c-.49-.54-.73-1.33-.73-2.38v-8.52c0-1.09-.05-1.96-.14-2.62-.09-.66-.34-1.21-.75-1.65s-1.03-.67-1.86-.67c-.67,0-1.3.2-1.9.59-.6.4-1.07.93-1.4,1.6-.37.85-.56,2.36-.56,4.53Z" style="fill:#fff; stroke-width:0px;"/>
</svg>