<?xml version="1.0" encoding="utf-8"?>
<!-- Generator: Adobe Illustrator 28.0.0, SVG Export Plug-In . SVG Version: 6.00 Build 0)  -->
<svg width="50" heigth="30" version="1.1" id="Layer_1" xmlns="http://www.w3.org/2000/svg" xmlns:xlink="http://www.w3.org/1999/xlink" x="0px" y="0px"
	 viewBox="0 0 302.2 128.9" style="enable-background:new 0 0 302.2 128.9;" xml:space="preserve">
<style type="text/css">
	.Arched_x0020_Green{fill:url(#SVGID_1_);stroke:#FFFFFF;stroke-width:0.25;stroke-miterlimit:1;}
	.st0{clip-path:url(#SVGID_00000001645524633658107350000003379357083928711298_);}
	.st1{fill:#E11B22;}
	.st2{fill:#007DC3;}
	.st3{fill:none;}
	.st4{font-family:'ArialMT';}
	.st5{font-size:12px;}
</style>
<linearGradient id="SVGID_1_" gradientUnits="userSpaceOnUse" x1="-336.8889" y1="452.1111" x2="-336.1818" y2="451.404">
	<stop  offset="0" style="stop-color:#20AC4B"/>
	<stop  offset="0.9831" style="stop-color:#19361A"/>
</linearGradient>
<g>
	<g>
		<defs>
			<rect id="SVGID_00000028293327951881782900000014731343132782897544_" x="15.6" y="18.4" width="255.1" height="100.2"/>
		</defs>
		<clipPath id="SVGID_00000003811573883142541460000012760024084403563440_">
			<use xlink:href="#SVGID_00000028293327951881782900000014731343132782897544_"  style="overflow:visible;"/>
		</clipPath>
		<path style="clip-path:url(#SVGID_00000003811573883142541460000012760024084403563440_);" d="M35.2,61.3c-0.8-0.9-2-1.1-3.5-0.7
			c-1.5,0.4-2.3,1.2-2.6,2.4c-0.3,1.2-0.1,2.9,0.6,5.2l0.5,1.9l7.8-2.2L37.5,66C36.8,63.7,36.1,62.1,35.2,61.3L35.2,61.3z M34,83.4
			c0.7,2.3,1.5,3.7,2.5,4.3c1,0.5,2,0.7,3,0.4c1.3-0.4,2.1-1.1,2.5-2.4c0.4-1.2,0.2-3.3-0.6-6.2l12.7-3.6c1.4,5.3,1.2,9.6-0.6,13
			c-1.8,3.4-5.7,5.9-11.5,7.6c-3.4,1-6.4,1.4-8.9,1.3c-2.5-0.1-4.7-0.8-6.7-2.2c-1.9-1.4-3.6-3.4-5-6c-1.4-2.7-2.7-6-3.8-10.1
			c-1.2-4.1-1.8-7.7-1.9-10.7c-0.1-3,0.3-5.6,1.3-7.8c1-2.2,2.5-4,4.5-5.5c2.1-1.5,4.7-2.6,7.9-3.6c2.8-0.8,5.4-1.2,7.7-1.1
			c2.3,0.1,4.4,0.7,6.3,1.9c1.9,1.2,3.6,3,5,5.4c1.4,2.4,2.7,5.5,3.8,9.4l1.2,4.3l-21,6L34,83.4L34,83.4z"/>
	</g>
	<polygon points="74.2,52 81.3,83.9 81.4,83.9 89.9,96.3 72.6,96.3 59.2,52 74.2,52 	"/>
	<path d="M124.3,81c0.1,1.8,0.3,3.2,0.7,4.2c0.3,1,0.7,1.8,1.3,2.1c0.5,0.4,1.2,0.6,2,0.6c0.8,0,1.5-0.2,2-0.6
		c0.5-0.4,1-1.1,1.3-2.1c0.3-1,0.5-2.4,0.6-4.2c0.1-1.8,0.2-4.1,0.2-6.9c0-2.8-0.1-5.1-0.2-6.9c-0.1-1.8-0.3-3.2-0.6-4.3
		c-0.3-1-0.7-1.8-1.3-2.1c-0.5-0.4-1.2-0.6-2-0.6c-0.8,0-1.5,0.2-2,0.6c-0.5,0.4-0.9,1.1-1.3,2.1c-0.3,1-0.5,2.5-0.7,4.3
		c-0.1,1.8-0.2,4.1-0.2,6.9C124.1,77,124.2,79.3,124.3,81L124.3,81z M146.4,82.7c-0.4,2.8-1.3,5.3-2.6,7.4c-1.3,2.2-3.2,3.9-5.7,5.2
		c-2.5,1.3-5.8,1.9-9.9,1.9c-4.3,0-7.7-0.6-10.2-1.8c-2.5-1.2-4.4-2.8-5.6-4.9c-1.3-2.1-2.1-4.6-2.4-7.4c-0.4-2.8-0.5-5.8-0.5-9.1
		c0-2.9,0.2-5.7,0.6-8.5c0.4-2.8,1.3-5.3,2.6-7.5c1.3-2.2,3.2-3.9,5.7-5.3c2.5-1.3,5.8-2,9.9-2c4.3,0,7.7,0.6,10.2,1.8
		c2.5,1.2,4.4,2.9,5.6,5c1.3,2.1,2.1,4.6,2.4,7.4c0.4,2.8,0.5,5.8,0.5,9.1C147,77.1,146.8,79.9,146.4,82.7L146.4,82.7z"/>
	<polygon points="174.4,37.8 174.4,96.3 159.7,96.3 159.7,37.8 174.4,37.8 	"/>
	<polygon class="st1" points="198.7,52 205.7,83.9 205.9,83.9 212.9,52 228.1,52 214.4,96.3 197,96.3 183.7,52 198.7,52 	"/>
	<path d="M256.1,61.5c-0.6-1.1-1.6-1.6-3.2-1.6c-1.5,0-2.6,0.5-3.1,1.6c-0.6,1.1-0.9,2.8-0.9,5.1v2h8.1v-2
		C257,64.3,256.7,62.6,256.1,61.5L256.1,61.5z M248.9,82.4c0,2.4,0.4,4,1.2,4.8c0.8,0.8,1.7,1.2,2.8,1.2c1.3,0,2.3-0.5,3.1-1.6
		c0.7-1.1,1.1-3.1,1.1-6.1h13.2c-0.1,5.5-1.5,9.6-4.2,12.3c-2.7,2.8-7.1,4.1-13.2,4.1c-3.5,0-6.5-0.4-8.9-1.2
		c-2.4-0.8-4.3-2.1-5.8-3.9c-1.5-1.8-2.5-4.2-3.2-7.2c-0.6-2.9-0.9-6.5-0.9-10.7c0-4.3,0.4-7.9,1.1-10.8c0.7-2.9,1.8-5.4,3.4-7.2
		c1.5-1.9,3.5-3.2,5.9-4.1c2.4-0.8,5.2-1.3,8.6-1.3c2.9,0,5.5,0.4,7.7,1.1c2.2,0.7,4.1,1.9,5.6,3.6c1.5,1.7,2.6,3.8,3.4,6.5
		c0.7,2.7,1.1,6.1,1.1,10.1v4.5h-21.8V82.4L248.9,82.4z"/>
	<path d="M35.3,111.6l-0.9-2.8c-0.2-0.6-0.4-1.2-0.5-1.8h0c-0.1,0.6-0.3,1.2-0.5,1.7l-0.9,2.8H35.3L35.3,111.6z M32.1,112.6l-1,3
		h-1.3l3.3-9.6h1.5l3.3,9.6h-1.3l-1-3H32.1L32.1,112.6z"/>
	<path d="M47.2,111.5c0-0.2,0-0.4-0.1-0.5c-0.2-0.8-0.9-1.5-1.8-1.5c-1.3,0-2.1,1.1-2.1,2.7c0,1.4,0.7,2.6,2,2.6
		c0.8,0,1.6-0.6,1.8-1.5c0-0.2,0.1-0.3,0.1-0.5V111.5L47.2,111.5z M48.4,105.5v8.3c0,0.6,0,1.3,0.1,1.8h-1.1l-0.1-1.2h0
		c-0.4,0.8-1.2,1.4-2.4,1.4c-1.7,0-3-1.4-3-3.5c0-2.3,1.4-3.7,3.1-3.7c1.1,0,1.8,0.5,2.1,1.1h0v-4.1H48.4L48.4,105.5z"/>
	<path d="M54.2,108.7l1.4,3.9c0.2,0.6,0.4,1.2,0.6,1.8h0c0.2-0.6,0.4-1.1,0.6-1.8l1.3-3.9h1.3l-2.7,6.9h-1.2l-2.6-6.9H54.2
		L54.2,108.7z"/>
	<path d="M67.3,112.1c-1.4,0-2.9,0.2-2.9,1.6c0,0.8,0.5,1.2,1.2,1.2c0.9,0,1.5-0.6,1.7-1.2c0-0.1,0.1-0.3,0.1-0.4V112.1L67.3,112.1z
		 M68.6,114c0,0.6,0,1.2,0.1,1.7h-1.1l-0.1-0.9h0c-0.4,0.5-1.1,1-2.1,1c-1.4,0-2.1-1-2.1-2c0-1.7,1.5-2.6,4.2-2.6v-0.1
		c0-0.6-0.2-1.6-1.6-1.6c-0.6,0-1.3,0.2-1.8,0.5l-0.3-0.8c0.6-0.4,1.4-0.6,2.3-0.6c2.1,0,2.6,1.4,2.6,2.8V114L68.6,114z"/>
	<path d="M73.7,110.6c0-0.7,0-1.3-0.1-1.9h1.1l0.1,1.1h0c0.3-0.7,1.1-1.3,2.3-1.3c1,0,2.4,0.6,2.4,2.9v4.1h-1.3v-4
		c0-1.1-0.4-2-1.6-2c-0.8,0-1.5,0.6-1.7,1.3c-0.1,0.2-0.1,0.4-0.1,0.6v4.2h-1.3V110.6L73.7,110.6z"/>
	<path d="M89.8,115.4c-0.3,0.2-1.1,0.4-2,0.4c-2.1,0-3.4-1.4-3.4-3.5c0-2.1,1.5-3.7,3.7-3.7c0.7,0,1.4,0.2,1.7,0.4l-0.3,1
		c-0.3-0.2-0.8-0.3-1.5-0.3c-1.6,0-2.4,1.2-2.4,2.6c0,1.6,1,2.6,2.4,2.6c0.7,0,1.2-0.2,1.5-0.3L89.8,115.4L89.8,115.4z"/>
	<path d="M98.8,111.5c0-0.8-0.3-2-1.7-2c-1.3,0-1.8,1.2-1.9,2H98.8L98.8,111.5z M95.1,112.4c0,1.7,1.1,2.4,2.4,2.4
		c0.9,0,1.4-0.2,1.9-0.4l0.2,0.9c-0.4,0.2-1.2,0.4-2.3,0.4c-2.1,0-3.4-1.4-3.4-3.5s1.2-3.7,3.2-3.7c2.3,0,2.9,2,2.9,3.3
		c0,0.3,0,0.5,0,0.6H95.1L95.1,112.4z"/>
	<path d="M109.4,111.5c0-0.2,0-0.4-0.1-0.5c-0.2-0.8-0.9-1.5-1.8-1.5c-1.3,0-2.1,1.1-2.1,2.7c0,1.4,0.7,2.6,2,2.6
		c0.8,0,1.6-0.6,1.8-1.5c0-0.2,0.1-0.3,0.1-0.5V111.5L109.4,111.5z M110.7,105.5v8.3c0,0.6,0,1.3,0.1,1.8h-1.1l-0.1-1.2h0
		c-0.4,0.8-1.2,1.4-2.4,1.4c-1.7,0-3-1.4-3-3.5c0-2.3,1.4-3.7,3.1-3.7c1.1,0,1.8,0.5,2.1,1.1h0v-4.1H110.7L110.7,105.5z"/>
	<path d="M120.3,114.6c0.3,0.1,0.8,0.1,1.3,0.1c2.7,0,4.1-1.5,4.1-4.1c0-2.3-1.3-3.7-3.9-3.7c-0.6,0-1.1,0.1-1.5,0.1V114.6
		L120.3,114.6z M119.1,106.1c0.8-0.1,1.7-0.2,2.6-0.2c1.8,0,3.1,0.4,3.9,1.2c0.9,0.8,1.4,1.9,1.4,3.5c0,1.6-0.5,2.9-1.4,3.7
		c-0.9,0.9-2.4,1.4-4.3,1.4c-0.9,0-1.6,0-2.3-0.1V106.1L119.1,106.1z"/>
	<path d="M131.7,115.6v-6.9h1.3v6.9H131.7L131.7,115.6z M133.1,106.8c0,0.4-0.3,0.8-0.8,0.8c-0.4,0-0.8-0.3-0.8-0.8
		c0-0.4,0.3-0.8,0.8-0.8C132.8,106,133.1,106.3,133.1,106.8L133.1,106.8z"/>
	<path d="M142.9,111.4c0-0.2,0-0.4-0.1-0.6c-0.2-0.7-0.8-1.3-1.8-1.3c-1.2,0-2.1,1-2.1,2.6c0,1.4,0.7,2.5,2,2.5
		c0.8,0,1.5-0.5,1.7-1.3c0.1-0.2,0.1-0.5,0.1-0.7V111.4L142.9,111.4z M144.1,114.6c0,1.6-0.3,2.6-1,3.2c-0.7,0.6-1.6,0.8-2.5,0.8
		c-0.8,0-1.7-0.2-2.3-0.6l0.3-1c0.5,0.3,1.2,0.5,2,0.5c1.3,0,2.2-0.7,2.2-2.4v-0.8h0c-0.4,0.6-1.1,1.2-2.2,1.2
		c-1.7,0-2.9-1.5-2.9-3.4c0-2.3,1.5-3.7,3.1-3.7c1.2,0,1.9,0.6,2.2,1.2h0l0.1-1h1.1c0,0.5-0.1,1.1-0.1,1.9V114.6L144.1,114.6z"/>
	<path d="M149.4,115.6v-6.9h1.3v6.9H149.4L149.4,115.6z M150.8,106.8c0,0.4-0.3,0.8-0.8,0.8c-0.4,0-0.8-0.3-0.8-0.8
		c0-0.4,0.3-0.8,0.8-0.8C150.5,106,150.8,106.3,150.8,106.8L150.8,106.8z"/>
	<path d="M157.4,107.1v1.7h1.8v1h-1.8v3.7c0,0.9,0.2,1.3,0.9,1.3c0.3,0,0.5,0,0.7-0.1l0.1,0.9c-0.2,0.1-0.6,0.2-1.1,0.2
		c-0.6,0-1.1-0.2-1.4-0.5c-0.4-0.4-0.5-1-0.5-1.8v-3.8h-1.1v-1h1.1v-1.3L157.4,107.1L157.4,107.1z"/>
	<path d="M167.4,112.1c-1.4,0-2.9,0.2-2.9,1.6c0,0.8,0.5,1.2,1.2,1.2c0.9,0,1.5-0.6,1.7-1.2c0-0.1,0.1-0.3,0.1-0.4V112.1
		L167.4,112.1z M168.6,114c0,0.6,0,1.2,0.1,1.7h-1.1l-0.1-0.9h0c-0.4,0.5-1.1,1-2.1,1c-1.4,0-2.1-1-2.1-2c0-1.7,1.5-2.6,4.2-2.6
		v-0.1c0-0.6-0.2-1.6-1.6-1.6c-0.6,0-1.3,0.2-1.8,0.5l-0.3-0.8c0.6-0.4,1.4-0.6,2.3-0.6c2.1,0,2.6,1.4,2.6,2.8V114L168.6,114z"/>
	<polygon points="173.8,105.5 175.1,105.5 175.1,115.6 173.8,115.6 173.8,105.5 	"/>
	<path d="M183.3,114.1c0.6,0.3,1.4,0.6,2.2,0.6c1.3,0,2-0.7,2-1.6c0-0.9-0.5-1.4-1.8-1.9c-1.6-0.6-2.5-1.4-2.5-2.7
		c0-1.5,1.2-2.6,3.1-2.6c1,0,1.7,0.2,2.1,0.5l-0.3,1c-0.3-0.2-1-0.5-1.8-0.5c-1.3,0-1.8,0.8-1.8,1.4c0,0.9,0.6,1.3,1.9,1.9
		c1.6,0.6,2.5,1.4,2.5,2.8c0,1.5-1.1,2.8-3.4,2.8c-0.9,0-1.9-0.3-2.5-0.6L183.3,114.1L183.3,114.1z"/>
	<path d="M194.4,112.2c0,1.5,0.9,2.7,2.1,2.7c1.2,0,2.1-1.1,2.1-2.7c0-1.2-0.6-2.7-2.1-2.7C195.1,109.5,194.4,110.9,194.4,112.2
		L194.4,112.2z M199.9,112.1c0,2.6-1.8,3.7-3.4,3.7c-1.9,0-3.3-1.4-3.3-3.6c0-2.3,1.5-3.7,3.4-3.7
		C198.5,108.6,199.9,110,199.9,112.1L199.9,112.1z"/>
	<polygon points="204.6,105.5 205.9,105.5 205.9,115.6 204.6,115.6 204.6,105.5 	"/>
	<path d="M217,113.7c0,0.7,0,1.3,0.1,1.9h-1.1l-0.1-1.1h0c-0.3,0.6-1.1,1.3-2.3,1.3c-1.1,0-2.4-0.6-2.4-3v-4h1.3v3.8
		c0,1.3,0.4,2.2,1.5,2.2c0.8,0,1.4-0.6,1.7-1.1c0.1-0.2,0.1-0.4,0.1-0.6v-4.2h1.3V113.7L217,113.7z"/>
	<path d="M223.7,107.1v1.7h1.8v1h-1.8v3.7c0,0.9,0.2,1.3,0.9,1.3c0.3,0,0.5,0,0.7-0.1l0.1,0.9c-0.2,0.1-0.6,0.2-1.1,0.2
		c-0.6,0-1.1-0.2-1.4-0.5c-0.4-0.4-0.5-1-0.5-1.8v-3.8h-1.1v-1h1.1v-1.3L223.7,107.1L223.7,107.1z"/>
	<path d="M230.1,115.6v-6.9h1.3v6.9H230.1L230.1,115.6z M231.5,106.8c0,0.4-0.3,0.8-0.8,0.8c-0.4,0-0.8-0.3-0.8-0.8
		c0-0.4,0.3-0.8,0.8-0.8C231.2,106,231.5,106.3,231.5,106.8L231.5,106.8z"/>
	<path d="M237.4,112.2c0,1.5,0.9,2.7,2.1,2.7c1.2,0,2.1-1.1,2.1-2.7c0-1.2-0.6-2.7-2.1-2.7C238,109.5,237.4,110.9,237.4,112.2
		L237.4,112.2z M242.9,112.1c0,2.6-1.8,3.7-3.4,3.7c-1.9,0-3.3-1.4-3.3-3.6c0-2.3,1.5-3.7,3.4-3.7
		C241.5,108.6,242.9,110,242.9,112.1L242.9,112.1z"/>
	<path d="M247.6,110.6c0-0.7,0-1.3-0.1-1.9h1.1l0.1,1.1h0c0.3-0.7,1.1-1.3,2.3-1.3c1,0,2.4,0.6,2.4,2.9v4.1h-1.3v-4
		c0-1.1-0.4-2-1.6-2c-0.8,0-1.5,0.6-1.7,1.3c-0.1,0.2-0.1,0.4-0.1,0.6v4.2h-1.3V110.6L247.6,110.6z"/>
	<path d="M258.5,114.3c0.4,0.2,1,0.5,1.7,0.5c0.9,0,1.3-0.5,1.3-1c0-0.6-0.4-0.9-1.3-1.3c-1.2-0.4-1.8-1.1-1.8-2c0-1.1,0.9-2,2.4-2
		c0.7,0,1.3,0.2,1.7,0.4l-0.3,0.9c-0.3-0.2-0.8-0.4-1.4-0.4c-0.7,0-1.2,0.4-1.2,0.9c0,0.6,0.4,0.8,1.3,1.2c1.2,0.5,1.8,1.1,1.8,2.1
		c0,1.2-0.9,2.1-2.6,2.1c-0.8,0-1.5-0.2-1.9-0.5L258.5,114.3L258.5,114.3z"/>
	<path class="st2" d="M101.6,105.1c-12.5-2.2-19.3-14.8-19.8-21.2c-2.3-35.2,30.8-64.2,75.4-65.5l0,0c-45.6,3-64,33.3-61.7,68.4
		C96,93.3,98.9,99.4,101.6,105.1L101.6,105.1z"/>
	<rect x="271.3" y="56.2" class="st3" width="23" height="9.1"/>
	<text transform="matrix(1.28 0 0 1.21 271.6892 62.7781)" class="st4 st5">TM</text>
</g>
</svg>
