<?xml version="1.0" encoding="utf-8"?>
<!-- Generator: Adobe Illustrator 28.0.0, SVG Export Plug-In . SVG Version: 6.00 Build 0)  -->
<svg version="1.1" id="Layer_1" xmlns="http://www.w3.org/2000/svg" xmlns:xlink="http://www.w3.org/1999/xlink" x="0px" y="0px"
	 viewBox="0 0 612 792" style="enable-background:new 0 0 612 792;" xml:space="preserve">
<style type="text/css">
	.st0{fill-rule:evenodd;clip-rule:evenodd;fill:#0071CE;}
	.st1{fill-rule:evenodd;clip-rule:evenodd;fill:#FFFFFF;}
	.st2{fill:#FFFFFF;}
</style>
<polygon class="st0" points="376.84,423.39 235.16,423.39 235.16,369.51 376.84,369.51 376.84,423.39 "/>
<polygon class="st1" points="253.11,379.48 253.11,413.42 245.13,413.42 245.13,379.48 253.11,379.48 253.11,379.48 "/>
<polygon class="st1" points="269.13,379.48 284.28,404.69 283.82,379.48 292.62,379.48 292.62,413.42 281.81,413.42 266.86,389.11 
	267.34,413.42 260.09,413.42 260.09,379.48 269.13,379.48 269.13,379.48 269.13,379.48 "/>
<polygon class="st2" points="337.17,399.28 329.29,399.28 329.29,392.25 337.17,392.25 337.17,399.28 "/>
<polygon class="st2" points="352.04,399.28 344.11,399.28 344.11,392.25 352.04,392.25 352.04,399.28 "/>
<polygon class="st2" points="366.87,399.28 358.96,399.28 358.96,392.25 366.87,392.25 366.87,399.28 "/>
<polygon class="st2" points="313.15,402.11 306.06,413.42 297,413.42 308,395.98 297.57,379.48 306.48,379.48 313.15,390.81 
	319.81,379.48 328.73,379.48 318.29,395.98 329.29,413.42 320.24,413.42 313.15,402.11 "/>
</svg>
