<?xml version="1.0" encoding="utf-8"?>
<!-- Generator: Adobe Illustrator 28.0.0, SVG Export Plug-In . SVG Version: 6.00 Build 0)  -->
<svg version="1.1" id="Livello_1" xmlns="http://www.w3.org/2000/svg" xmlns:xlink="http://www.w3.org/1999/xlink" x="0px" y="0px"
	 viewBox="0 0 563.1 792" style="enable-background:new 0 0 563.1 792;" xml:space="preserve">
<style type="text/css">
	.st0{fill:#009FE3;}
	.st1{fill:#020203;}
	.st2{fill:#E30613;}
	.st3{fill:#FFED00;}
	.st4{fill:#FFFFFF;}
	.st5{fill:none;}
	.st6{clip-path:url(#SVGID_00000047757448213308052770000009684414457612788615_);fill:#FFFFFF;}
</style>
<g>
	<g>
		<g>
			<rect x="52.1" y="51.5" class="st0" width="230.7" height="269.9"/>
			<rect x="282.8" y="51.5" class="st1" width="230.7" height="269.9"/>
			<rect x="52.1" y="321.4" class="st2" width="230.7" height="269.9"/>
			<rect x="282.8" y="321.4" class="st3" width="230.7" height="269.9"/>
			<path class="st1" d="M537.4,24.7H25.7v742.6h511.7V24.7z M430.3,591.3H282l3.7-1.1c53.2-16,102.3-42.7,144.6-77.5V591.3z
				 M513.5,591.3h-57.6V489.7c21.5-20.9,40.9-44.1,57.6-69.3V591.3z M52.1,114.8h91.3c57.3,0,103.9,46.6,103.9,103.9v136.5h25.6
				V218.7c0-71.4-58.1-129.5-129.5-129.5H52.1V51.5h461.3v37.8h-92.9c-47.8,0-89.5,26.1-112,64.7h30.8
				c19.1-23.8,48.3-39.2,81.1-39.2h92.9v255.2c-48,92.8-132,163.4-231.5,194.5c-98.4-30.7-181.6-100.2-229.8-191.5V114.8z
				 M282,591.3H135.3v-77.4c42,34.2,90.5,60.4,143,76.3L282,591.3z M109.7,491.3v100H52.1V422.8C68.9,447.7,88.2,470.6,109.7,491.3z
				"/>
			<path class="st1" d="M134.9,208.5c-18.2,0-34.7-10.1-43.1-26.2l-22.7,11.8c12.8,24.7,38,40.1,65.8,40.1c27.8,0,53-15.4,65.8-40.1
				L178,182.3C169.6,198.5,153.1,208.5,134.9,208.5z"/>
			<path class="st4" d="M430,234.1c27.8,0,53-15.4,65.8-40.1l-22.7-11.7c-8.4,16.2-24.9,26.2-43.1,26.2c-18.2,0-34.7-10.1-43.1-26.2
				l-22.7,11.8C377,218.8,402.2,234.1,430,234.1z"/>
			<path class="st5" d="M430.3,512.6c-42.4,34.9-91.4,61.5-144.6,77.5l-3.7,1.1l-3.7-1.1c-52.5-15.8-101-42-143-76.3v77.7h295V512.6
				z"/>
			<path class="st5" d="M52.1,51.5v37.8h91.3c71.4,0,129.5,58.1,129.5,129.5v136.5h-25.6V218.7c0-57.3-46.6-103.9-103.9-103.9H52.1
				v258.2c48.2,91.3,131.5,160.8,229.8,191.5c99.4-31,183.5-101.7,231.5-194.5V114.8h-92.9c-32.8,0-62.1,15.3-81.1,39.2h-30.8
				c22.4-38.6,64.2-64.7,112-64.7h92.9V51.5H52.1z"/>
			<path class="st5" d="M109.7,491.3c-21.5-20.6-40.8-43.6-57.6-68.5v168.9h57.6V491.3z"/>
			<g>
				<defs>
					<rect id="SVGID_1_" x="282.8" y="51.5" width="230.7" height="269.9"/>
				</defs>
				<clipPath id="SVGID_00000062910588608153433910000013112402930002830004_">
					<use xlink:href="#SVGID_1_"  style="overflow:visible;"/>
				</clipPath>
				<path style="clip-path:url(#SVGID_00000062910588608153433910000013112402930002830004_);fill:#FFFFFF;" d="M308.6,154h30.8
					c19.1-23.8,48.3-39.2,81.1-39.2h99.5V89.2h-99.5C372.7,89.2,331,115.4,308.6,154z"/>
			</g>
		</g>
		<g>
			<path class="st4" d="M538.3,24.7v742.6H24.8V24.7H538.3 M551.5,11.5h-13.2H24.8H11.6v13.2v742.6v13.2h13.2h513.5h13.2v-13.2V24.7
				V11.5L551.5,11.5z"/>
		</g>
		<g>
			<g>
				<rect x="340.2" y="672.4" class="st4" width="16.9" height="16.9"/>
			</g>
			<g>
				<path class="st4" d="M103.3,616.2h25.3v126.5h-17.2V652l-12.6,90.7H81.6L68,653.3v89.4H52.1V616.2h25.3L90.9,706L103.3,616.2z"
					/>
				<path class="st4" d="M185.1,669.5v18.1h-25v37h31.5v18.1h-49.7V616.2h49.7v18.1h-31.5v35.2H185.1z"/>
				<path class="st4" d="M255.7,672.2v40.1c0,10.2-2.3,18.1-7,23.6c-4.6,5.5-11.4,8.2-20.2,8.2c-8.8,0-15.6-2.7-20.2-8.2
					c-4.6-5.5-7-13.3-7-23.6v-65.8c0-10.2,2.3-18.1,7-23.6c4.6-5.5,11.4-8.2,20.2-8.2c8.8,0,15.6,2.7,20.2,8.2
					c4.6,5.5,7,13.3,7,23.6v12.3h-17.2v-13.5c0-8.3-3.1-12.5-9.4-12.5c-6.3,0-9.4,4.2-9.4,12.5v68.3c0,8.2,3.1,12.3,9.4,12.3
					c6.3,0,9.4-4.1,9.4-12.3v-23.3h-8.3v-18.1H255.7z"/>
				<path class="st4" d="M308,742.7l-3.1-22.9h-22.4l-3.1,22.9h-16.7l18.5-126.5h26.7l18.5,126.5H308z M302.4,702.6l-8.8-63.9
					l-8.8,63.9H302.4z"/>
			</g>
			<g>
				<path class="st4" d="M380,742.7h-7.6V616.2h7.6V742.7z"/>
				<path class="st4" d="M393.2,742.7V616.2h9.9L438,723V616.2h7v126.5h-8.4L400.2,630v112.7H393.2z"/>
				<path class="st4" d="M465.6,697v45.7H458V616.2h7.6v66.8l37.8-66.8h7.9l-33.1,58.9l35.3,67.6h-7.9l-32-59.4L465.6,697z"/>
			</g>
		</g>
	</g>
	<path class="st1" d="M284,421.8c-29.1-10.4-47.4,16.2-57.6,23.5l-0.6,0.1c3,15.4,42.4,34.8,58.2,34.8c15.7,0,55.2-19.5,58.2-34.8
		l-0.6-0.1C331.4,438.1,315.5,412.1,284,421.8z"/>
</g>
</svg>
